<svg xmlns="http://www.w3.org/2000/svg" xmlns:xlink="http://www.w3.org/1999/xlink" width="500" zoomAndPan="magnify" viewBox="0 0 375 374.999991" height="500" preserveAspectRatio="xMidYMid meet" version="1.0"><defs><clipPath id="df41479702"><path d="M 38 5.105469 L 337 5.105469 L 337 369.605469 L 38 369.605469 Z M 38 5.105469 " clip-rule="nonzero"/></clipPath></defs><g clip-path="url(#df41479702)"><path fill="#ffcc00" d="M 187.800781 4.941406 C 183.589844 4.941406 180.660156 6.574219 177.398438 8.351562 C 174.136719 10.136719 170.792969 12.332031 167.527344 14.558594 C 164.257812 16.785156 161.050781 19.0625 158.367188 20.773438 C 155.683594 22.488281 153.234375 23.628906 152.914062 23.71875 C 152.59375 23.816406 149.90625 23.988281 146.71875 23.851562 C 143.535156 23.71875 139.675781 23.382812 135.726562 23.078125 C 131.777344 22.777344 127.726562 22.472656 124.007812 22.546875 C 120.285156 22.617188 116.917969 22.6875 113.269531 24.777344 C 109.625 26.871094 107.898438 29.789062 105.972656 32.953125 C 104.042969 36.117188 102.277344 39.667969 100.566406 43.21875 C 98.859375 46.769531 97.226562 50.289062 95.765625 53.105469 C 94.300781 55.921875 92.773438 58.105469 92.539062 58.335938 C 92.300781 58.570312 90.042969 60.148438 87.207031 61.597656 C 84.375 63.054688 80.835938 64.679688 77.261719 66.375 C 73.6875 68.074219 70.117188 69.828125 66.933594 71.742188 C 63.75 73.660156 60.875 75.382812 58.769531 79.007812 C 56.664062 82.632812 56.605469 85.972656 56.527344 89.667969 C 56.457031 93.367188 56.671875 97.390625 56.984375 101.316406 C 57.289062 105.242188 57.621094 109.070312 57.773438 112.234375 C 57.914062 115.402344 57.722656 118.070312 57.652344 118.390625 C 57.558594 118.726562 56.410156 121.152344 54.6875 123.820312 C 52.960938 126.484375 50.734375 129.660156 48.492188 132.90625 C 46.25 136.152344 43.972656 139.414062 42.179688 142.65625 C 40.382812 145.898438 38.753906 148.875 38.753906 153.058594 C 38.753906 157.242188 40.386719 160.148438 42.179688 163.386719 C 43.972656 166.628906 46.253906 169.953125 48.492188 173.199219 C 50.734375 176.445312 52.960938 179.632812 54.6875 182.296875 C 56.410156 184.964844 57.566406 187.347656 57.652344 187.664062 C 57.75 188 57.925781 190.714844 57.773438 193.882812 C 57.628906 197.046875 57.289062 200.878906 56.984375 204.804688 C 56.675781 208.726562 56.449219 212.691406 56.527344 216.386719 C 56.601562 220.085938 56.671875 223.488281 58.769531 227.109375 C 60.875 230.734375 63.75 232.457031 66.933594 234.375 C 70.117188 236.289062 73.6875 238.03125 77.261719 239.730469 C 80.835938 241.429688 84.375 243.054688 87.207031 244.507812 C 90.042969 245.960938 92.304688 247.484375 92.539062 247.71875 C 92.753906 247.941406 94.136719 249.921875 95.519531 252.507812 L 52.160156 327.210938 C 51.875 327.707031 51.65625 328.226562 51.511719 328.777344 C 51.367188 329.328125 51.300781 329.890625 51.308594 330.457031 C 51.316406 331.027344 51.398438 331.585938 51.558594 332.132812 C 51.714844 332.679688 51.945312 333.195312 52.242188 333.679688 C 52.542969 334.167969 52.898438 334.601562 53.316406 334.992188 C 53.734375 335.378906 54.195312 335.703125 54.699219 335.96875 C 55.207031 336.230469 55.738281 336.421875 56.292969 336.539062 C 56.851562 336.660156 57.414062 336.703125 57.980469 336.667969 L 94.644531 334.476562 L 111.066406 367.089844 C 111.324219 367.59375 111.640625 368.058594 112.023438 368.476562 C 112.402344 368.898438 112.832031 369.257812 113.308594 369.5625 C 113.789062 369.867188 114.296875 370.101562 114.839844 370.269531 C 115.382812 370.4375 115.9375 370.527344 116.503906 370.542969 C 117.070312 370.5625 117.628906 370.503906 118.179688 370.371094 C 118.730469 370.234375 119.253906 370.03125 119.746094 369.757812 C 120.242188 369.480469 120.695312 369.144531 121.097656 368.75 C 121.503906 368.355469 121.847656 367.910156 122.136719 367.421875 L 166.613281 290.871094 C 166.921875 291.078125 167.214844 291.273438 167.523438 291.484375 C 170.792969 293.714844 174.136719 295.921875 177.398438 297.703125 C 180.660156 299.484375 183.589844 301.101562 187.800781 301.101562 C 192.011719 301.101562 194.941406 299.488281 198.203125 297.703125 C 201.464844 295.921875 204.808594 293.714844 208.078125 291.484375 C 208.390625 291.269531 208.6875 291.070312 209 290.859375 L 253.445312 367.421875 C 253.730469 367.910156 254.074219 368.355469 254.480469 368.753906 C 254.886719 369.152344 255.335938 369.488281 255.832031 369.765625 C 256.328125 370.039062 256.851562 370.246094 257.40625 370.378906 C 257.957031 370.515625 258.515625 370.574219 259.082031 370.554688 C 259.652344 370.539062 260.207031 370.445312 260.75 370.28125 C 261.292969 370.113281 261.804688 369.875 262.28125 369.570312 C 262.761719 369.265625 263.191406 368.902344 263.570312 368.480469 C 263.953125 368.058594 264.269531 367.597656 264.523438 367.089844 L 280.949219 334.476562 L 317.609375 336.667969 C 318.179688 336.707031 318.746094 336.667969 319.304688 336.550781 C 319.867188 336.4375 320.402344 336.25 320.910156 335.988281 C 321.417969 335.726562 321.882812 335.402344 322.304688 335.015625 C 322.726562 334.628906 323.085938 334.191406 323.386719 333.703125 C 323.6875 333.21875 323.921875 332.703125 324.082031 332.152344 C 324.242188 331.605469 324.328125 331.042969 324.335938 330.472656 C 324.34375 329.898438 324.277344 329.335938 324.128906 328.785156 C 323.984375 328.230469 323.769531 327.707031 323.480469 327.210938 L 280.074219 252.53125 C 281.460938 249.933594 282.84375 247.941406 283.066406 247.71875 C 283.304688 247.484375 285.5625 245.960938 288.394531 244.507812 C 291.230469 243.050781 294.757812 241.425781 298.332031 239.730469 C 301.90625 238.03125 305.488281 236.289062 308.671875 234.375 C 311.855469 232.457031 314.730469 230.734375 316.835938 227.109375 C 318.941406 223.488281 318.996094 220.085938 319.078125 216.386719 C 319.148438 212.691406 318.933594 208.726562 318.621094 204.804688 C 318.3125 200.878906 317.972656 197.050781 317.820312 193.882812 C 317.679688 190.71875 317.867188 187.984375 317.964844 187.664062 C 318.058594 187.332031 319.207031 184.964844 320.929688 182.296875 C 322.65625 179.632812 324.871094 176.449219 327.109375 173.199219 C 329.351562 169.953125 331.644531 166.628906 333.4375 163.386719 C 335.234375 160.144531 336.789062 157.242188 336.789062 153.058594 C 336.789062 148.875 335.230469 145.898438 333.4375 142.65625 C 331.644531 139.414062 329.351562 136.152344 327.109375 132.90625 C 324.867188 129.660156 322.652344 126.488281 320.929688 123.820312 C 319.207031 121.152344 318.050781 118.710938 317.964844 118.390625 C 317.867188 118.054688 317.675781 115.402344 317.820312 112.234375 C 317.964844 109.070312 318.3125 105.242188 318.621094 101.316406 C 318.929688 97.390625 319.15625 93.367188 319.078125 89.667969 C 319.003906 85.972656 318.933594 82.632812 316.835938 79.007812 C 314.726562 75.382812 311.855469 73.660156 308.671875 71.742188 C 305.488281 69.828125 301.90625 68.074219 298.332031 66.375 C 294.757812 64.679688 291.230469 63.050781 288.394531 61.597656 C 285.5625 60.144531 283.300781 58.566406 283.066406 58.335938 C 282.828125 58.105469 281.300781 55.921875 279.839844 53.105469 C 278.375 50.289062 276.734375 46.769531 275.027344 43.21875 C 273.316406 39.667969 271.5625 36.117188 269.632812 32.953125 C 267.707031 29.785156 265.96875 26.871094 262.320312 24.777344 C 258.675781 22.683594 255.320312 22.625 251.597656 22.546875 C 247.875 22.480469 243.828125 22.789062 239.878906 23.078125 C 235.925781 23.378906 232.070312 23.707031 228.882812 23.851562 C 225.699219 23.988281 223.011719 23.816406 222.691406 23.71875 C 222.371094 23.617188 219.910156 22.488281 217.226562 20.773438 C 214.542969 19.0625 211.347656 16.785156 208.078125 14.558594 C 204.8125 12.332031 201.46875 10.136719 198.207031 8.351562 C 194.945312 6.570312 192.011719 4.941406 187.800781 4.941406 Z M 187.789062 17.539062 C 188.046875 17.652344 189.976562 18.144531 192.148438 19.335938 C 194.683594 20.722656 197.792969 22.800781 200.964844 24.960938 C 204.132812 27.121094 207.332031 29.367188 210.378906 31.3125 C 213.429688 33.257812 216.042969 34.925781 219.40625 35.820312 C 222.765625 36.714844 225.855469 36.582031 229.476562 36.410156 C 233.09375 36.242188 237.03125 35.859375 240.863281 35.5625 C 244.695312 35.257812 248.433594 35.046875 251.328125 35.105469 C 253.8125 35.164062 255.71875 35.707031 255.992188 35.734375 C 256.183594 35.984375 257.570312 37.34375 258.835938 39.425781 C 260.335938 41.886719 261.980469 45.203125 263.636719 48.648438 C 265.296875 52.09375 266.914062 55.65625 268.574219 58.855469 C 270.234375 62.050781 271.65625 64.78125 274.113281 67.226562 C 276.574219 69.671875 279.316406 71.066406 282.535156 72.714844 C 285.753906 74.367188 289.410156 76.042969 292.878906 77.691406 C 296.34375 79.335938 299.683594 80.976562 302.160156 82.464844 C 304.269531 83.734375 305.640625 85.125 305.878906 85.296875 C 305.898438 85.597656 306.378906 87.480469 306.433594 89.925781 C 306.503906 92.800781 306.265625 96.523438 305.976562 100.328125 C 305.683594 104.136719 305.359375 108.050781 305.1875 111.644531 C 305.023438 115.238281 304.804688 118.3125 305.707031 121.652344 C 306.605469 124.992188 308.292969 127.585938 310.25 130.617188 C 312.203125 133.644531 314.527344 136.824219 316.699219 139.972656 C 318.871094 143.121094 320.90625 146.21875 322.300781 148.738281 C 323.488281 150.878906 323.988281 152.769531 324.113281 153.046875 C 323.992188 153.289062 323.496094 155.144531 322.300781 157.304688 C 320.90625 159.824219 318.875 162.921875 316.699219 166.070312 C 314.527344 169.21875 312.207031 172.460938 310.25 175.488281 C 308.289062 178.515625 306.605469 181.113281 305.707031 184.453125 C 304.804688 187.792969 305.019531 190.867188 305.1875 194.460938 C 305.355469 198.054688 305.679688 201.96875 305.976562 205.773438 C 306.277344 209.582031 306.496094 213.242188 306.433594 216.117188 C 306.386719 218.5625 305.902344 220.445312 305.878906 220.746094 C 305.636719 220.917969 304.269531 222.304688 302.160156 223.578125 C 299.683594 225.066406 296.34375 226.769531 292.878906 228.414062 C 289.410156 230.0625 285.753906 231.675781 282.535156 233.328125 C 279.316406 234.980469 276.574219 236.375 274.113281 238.816406 C 271.65625 241.261719 270.234375 243.992188 268.574219 247.191406 C 266.914062 250.386719 265.296875 254.011719 263.636719 257.457031 C 261.980469 260.902344 260.335938 264.15625 258.835938 266.617188 C 257.566406 268.699219 256.179688 270.109375 255.992188 270.371094 C 255.722656 270.382812 253.8125 270.886719 251.328125 270.9375 C 248.433594 271.003906 244.695312 270.773438 240.863281 270.480469 C 237.03125 270.179688 233.09375 269.804688 229.476562 269.632812 C 225.855469 269.464844 222.765625 269.320312 219.40625 270.210938 C 216.042969 271.105469 213.429688 272.785156 210.378906 274.730469 C 207.332031 276.675781 204.132812 278.984375 200.964844 281.144531 C 197.792969 283.304688 194.683594 285.324219 192.148438 286.707031 C 189.972656 287.898438 188.042969 288.390625 187.789062 288.507812 C 187.507812 288.382812 185.613281 287.886719 183.457031 286.707031 C 180.921875 285.320312 177.796875 283.304688 174.628906 281.144531 C 171.460938 278.984375 168.269531 276.675781 165.222656 274.730469 C 162.175781 272.785156 159.558594 271.105469 156.199219 270.210938 C 152.839844 269.316406 149.746094 269.460938 146.128906 269.632812 C 142.511719 269.800781 138.574219 270.1875 134.742188 270.480469 C 130.910156 270.785156 127.15625 271 124.265625 270.9375 C 121.824219 270.878906 119.945312 270.410156 119.625 270.382812 C 119.457031 270.148438 118.054688 268.726562 116.765625 266.617188 C 115.269531 264.160156 113.613281 260.902344 111.953125 257.457031 C 110.296875 254.011719 108.679688 250.386719 107.015625 247.191406 C 105.355469 243.992188 103.949219 241.261719 101.488281 238.816406 C 99.03125 236.375 96.214844 234.976562 92.996094 233.328125 C 89.777344 231.675781 86.195312 230.0625 82.726562 228.414062 C 79.261719 226.765625 75.917969 225.066406 73.445312 223.578125 C 71.347656 222.316406 69.976562 220.933594 69.726562 220.746094 C 69.707031 220.449219 69.210938 218.5625 69.160156 216.117188 C 69.089844 213.242188 69.328125 209.582031 69.628906 205.773438 C 69.925781 201.96875 70.242188 198.054688 70.414062 194.460938 C 70.582031 190.867188 70.789062 187.792969 69.886719 184.453125 C 68.984375 181.113281 67.300781 178.519531 65.34375 175.488281 C 63.386719 172.460938 61.066406 169.222656 58.894531 166.070312 C 56.71875 162.921875 54.699219 159.824219 53.304688 157.304688 C 52.109375 155.148438 51.613281 153.289062 51.492188 153.046875 C 51.613281 152.765625 52.117188 150.878906 53.304688 148.738281 C 54.699219 146.21875 56.71875 143.121094 58.894531 139.972656 C 61.066406 136.824219 63.386719 133.644531 65.34375 130.617188 C 67.300781 127.585938 68.988281 124.992188 69.886719 121.652344 C 70.789062 118.3125 70.585938 115.238281 70.414062 111.644531 C 70.25 108.050781 69.925781 104.136719 69.628906 100.332031 C 69.328125 96.523438 69.097656 92.800781 69.160156 89.925781 C 69.207031 87.480469 69.707031 85.59375 69.726562 85.296875 C 69.976562 85.113281 71.347656 83.730469 73.445312 82.464844 C 75.917969 80.976562 79.261719 79.335938 82.726562 77.691406 C 86.195312 76.042969 89.777344 74.367188 92.996094 72.714844 C 96.214844 71.066406 99.03125 69.667969 101.488281 67.226562 C 103.949219 64.78125 105.355469 62.050781 107.015625 58.855469 C 108.679688 55.65625 110.296875 52.09375 111.953125 48.648438 C 113.613281 45.203125 115.269531 41.886719 116.765625 39.425781 C 118.042969 37.332031 119.4375 35.957031 119.613281 35.722656 C 119.910156 35.6875 121.804688 35.15625 124.265625 35.105469 C 127.15625 35.039062 130.910156 35.269531 134.742188 35.5625 C 138.574219 35.863281 142.511719 36.238281 146.128906 36.410156 C 149.746094 36.578125 152.839844 36.710938 156.199219 35.820312 C 159.558594 34.925781 162.175781 33.257812 165.222656 31.3125 C 168.269531 29.367188 171.460938 27.121094 174.628906 24.960938 C 177.796875 22.800781 180.921875 20.71875 183.457031 19.335938 C 185.613281 18.15625 187.511719 17.660156 187.789062 17.539062 Z M 187.789062 57.992188 C 135.097656 57.992188 92.21875 100.625 92.21875 153.058594 C 92.21875 205.492188 135.097656 248.0625 187.789062 248.0625 C 240.484375 248.0625 283.371094 205.492188 283.371094 153.058594 C 283.371094 100.625 240.484375 57.992188 187.789062 57.992188 Z M 187.789062 70.597656 C 233.714844 70.597656 270.753906 107.480469 270.753906 153.058594 C 270.753906 198.636719 233.714844 235.457031 187.789062 235.457031 C 141.867188 235.457031 104.839844 198.636719 104.839844 153.058594 C 104.839844 107.480469 141.867188 70.597656 187.789062 70.597656 Z M 187.789062 119.511719 C 186.902344 119.515625 186.050781 119.699219 185.242188 120.066406 C 184.433594 120.429688 183.730469 120.941406 183.136719 121.601562 L 169.273438 136.90625 L 145.550781 120.617188 C 145.035156 120.265625 144.476562 120 143.882812 119.8125 C 143.285156 119.628906 142.675781 119.53125 142.050781 119.527344 C 141.425781 119.523438 140.8125 119.613281 140.214844 119.789062 C 139.617188 119.96875 139.054688 120.230469 138.535156 120.574219 C 138.011719 120.917969 137.554688 121.332031 137.15625 121.8125 C 136.757812 122.292969 136.4375 122.820312 136.195312 123.398438 C 135.953125 123.972656 135.800781 124.570312 135.738281 125.195312 C 135.675781 125.816406 135.703125 126.433594 135.824219 127.046875 L 146.472656 181.4375 C 146.613281 182.15625 146.867188 182.832031 147.242188 183.464844 C 147.613281 184.09375 148.082031 184.644531 148.648438 185.113281 C 149.214844 185.578125 149.839844 185.9375 150.53125 186.183594 C 151.222656 186.433594 151.933594 186.558594 152.667969 186.558594 L 222.925781 186.558594 C 223.660156 186.558594 224.371094 186.433594 225.0625 186.183594 C 225.75 185.9375 226.378906 185.578125 226.945312 185.113281 C 227.507812 184.644531 227.980469 184.09375 228.351562 183.464844 C 228.726562 182.832031 228.980469 182.15625 229.117188 181.4375 L 239.765625 127.046875 C 239.886719 126.433594 239.917969 125.816406 239.851562 125.195312 C 239.789062 124.570312 239.636719 123.972656 239.394531 123.398438 C 239.15625 122.820312 238.835938 122.292969 238.4375 121.8125 C 238.039062 121.328125 237.578125 120.917969 237.058594 120.574219 C 236.535156 120.230469 235.976562 119.96875 235.378906 119.789062 C 234.777344 119.613281 234.167969 119.523438 233.542969 119.527344 C 232.917969 119.53125 232.308594 119.628906 231.710938 119.8125 C 231.113281 120 230.558594 120.265625 230.042969 120.617188 L 206.355469 136.90625 L 192.445312 121.601562 C 191.851562 120.941406 191.148438 120.429688 190.339844 120.066406 C 189.527344 119.699219 188.679688 119.515625 187.789062 119.511719 Z M 187.789062 135.230469 L 200.679688 149.476562 C 200.933594 149.757812 201.210938 150.011719 201.507812 150.242188 C 201.808594 150.472656 202.128906 150.675781 202.464844 150.847656 C 202.800781 151.023438 203.148438 151.164062 203.507812 151.273438 C 203.871094 151.386719 204.238281 151.464844 204.613281 151.507812 C 204.992188 151.550781 205.367188 151.5625 205.746094 151.539062 C 206.121094 151.515625 206.496094 151.457031 206.863281 151.367188 C 207.230469 151.277344 207.585938 151.15625 207.929688 151 C 208.273438 150.847656 208.605469 150.664062 208.914062 150.449219 L 224.464844 139.75 L 217.753906 173.949219 L 157.824219 173.949219 L 151.175781 139.75 L 166.675781 150.449219 C 166.988281 150.660156 167.316406 150.84375 167.660156 151 C 168.007812 151.152344 168.363281 151.273438 168.726562 151.363281 C 169.09375 151.453125 169.464844 151.511719 169.84375 151.535156 C 170.21875 151.558594 170.597656 151.546875 170.96875 151.503906 C 171.34375 151.457031 171.714844 151.378906 172.074219 151.269531 C 172.433594 151.160156 172.785156 151.019531 173.117188 150.84375 C 173.453125 150.671875 173.773438 150.46875 174.070312 150.242188 C 174.371094 150.011719 174.648438 149.753906 174.898438 149.476562 Z M 102.179688 266.148438 C 103.386719 268.589844 104.644531 270.988281 105.972656 273.167969 C 107.898438 276.332031 109.625 279.1875 113.269531 281.277344 C 116.917969 283.371094 120.285156 283.417969 124.007812 283.496094 C 127.726562 283.5625 131.777344 283.332031 135.726562 283.039062 C 139.675781 282.738281 143.535156 282.339844 146.71875 282.191406 C 149.90625 282.058594 152.59375 282.285156 152.914062 282.386719 C 153.128906 282.457031 154.402344 283.039062 156.027344 283.9375 L 117.113281 351.046875 L 104.039062 325.121094 C 103.761719 324.566406 103.414062 324.066406 102.992188 323.617188 C 102.574219 323.167969 102.09375 322.789062 101.5625 322.480469 C 101.03125 322.167969 100.464844 321.941406 99.863281 321.800781 C 99.265625 321.65625 98.65625 321.601562 98.042969 321.636719 L 68.964844 323.410156 Z M 273.414062 266.148438 L 306.628906 323.394531 L 277.597656 321.636719 C 276.984375 321.597656 276.375 321.652344 275.773438 321.796875 C 275.171875 321.9375 274.605469 322.164062 274.070312 322.476562 C 273.539062 322.785156 273.058594 323.164062 272.636719 323.613281 C 272.214844 324.066406 271.867188 324.566406 271.589844 325.117188 L 258.515625 351.035156 L 219.550781 283.949219 C 221.191406 283.039062 222.46875 282.449219 222.691406 282.386719 C 223.011719 282.285156 225.699219 282.046875 228.882812 282.1875 C 232.070312 282.324219 235.925781 282.734375 239.878906 283.039062 C 243.828125 283.339844 247.875 283.570312 251.597656 283.496094 C 255.320312 283.425781 258.675781 283.367188 262.320312 281.277344 C 265.96875 279.183594 267.707031 276.328125 269.632812 273.164062 C 270.960938 270.984375 272.207031 268.585938 273.414062 266.148438 Z M 273.414062 266.148438 " fill-opacity="1" fill-rule="nonzero"/></g></svg>