<svg xmlns="http://www.w3.org/2000/svg" xmlns:xlink="http://www.w3.org/1999/xlink" width="500" zoomAndPan="magnify" viewBox="0 0 375 374.999991" height="500" preserveAspectRatio="xMidYMid meet" version="1.0"><defs><clipPath id="98aea69fbc"><path d="M 335 284 L 368.425781 284 L 368.425781 337.101562 L 335 337.101562 Z M 335 284 " clip-rule="nonzero"/></clipPath><clipPath id="a0687845ef"><path d="M 7 37.851562 L 60 37.851562 L 60 71 L 7 71 Z M 7 37.851562 " clip-rule="nonzero"/></clipPath></defs><path fill="#db4437" d="M 45.148438 299.089844 L 341.804688 299.089844 L 341.804688 322.6875 L 21.523438 322.6875 L 21.523438 65.558594 L 45.148438 65.558594 Z M 45.148438 299.089844 " fill-opacity="1" fill-rule="evenodd"/><g clip-path="url(#98aea69fbc)"><path fill="#db4437" d="M 335.101562 284.679688 L 335.101562 337.09375 L 368.285156 310.886719 Z M 335.101562 284.679688 " fill-opacity="1" fill-rule="evenodd"/></g><path fill="#db4437" d="M 243.359375 189.625 L 269.027344 189.625 L 269.027344 305.601562 L 243.359375 305.601562 Z M 243.359375 189.625 " fill-opacity="1" fill-rule="evenodd"/><path fill="#db4437" d="M 190.03125 177.699219 L 215.699219 177.699219 L 215.699219 305.601562 L 190.03125 305.601562 Z M 190.03125 177.699219 " fill-opacity="1" fill-rule="evenodd"/><path fill="#db4437" d="M 136.703125 201.914062 L 162.367188 201.914062 L 162.367188 305.601562 L 136.703125 305.601562 Z M 136.703125 201.914062 " fill-opacity="1" fill-rule="evenodd"/><path fill="#db4437" d="M 83.375 166.847656 L 109.039062 166.847656 L 109.039062 305.601562 L 83.375 305.601562 Z M 83.375 166.847656 " fill-opacity="1" fill-rule="evenodd"/><path fill="#db4437" d="M 296.691406 137.207031 L 322.355469 137.207031 L 322.355469 305.601562 L 296.691406 305.601562 Z M 296.691406 137.207031 " fill-opacity="1" fill-rule="evenodd"/><path fill="#1865c1" d="M 258.824219 144.722656 L 299.957031 103.203125 L 306.894531 110.089844 L 265.761719 151.613281 Z M 258.824219 144.722656 " fill-opacity="1" fill-rule="nonzero"/><path fill="#1865c1" d="M 212.410156 139.25 L 248.832031 147.617188 L 246.652344 157.148438 L 210.226562 148.78125 Z M 212.410156 139.25 " fill-opacity="1" fill-rule="nonzero"/><path fill="#1865c1" d="M 155.984375 158.550781 L 192.9375 141.320312 L 197.074219 150.160156 L 160.125 167.394531 Z M 155.984375 158.550781 " fill-opacity="1" fill-rule="nonzero"/><path fill="#1865c1" d="M 106.128906 131.722656 L 144.828125 157.855469 L 139.347656 165.972656 L 100.648438 139.839844 Z M 106.128906 131.722656 " fill-opacity="1" fill-rule="nonzero"/><path fill="#1865c1" d="M 309.523438 86.511719 C 317.253906 86.511719 323.519531 92.769531 323.519531 100.488281 C 323.519531 108.210938 317.253906 114.46875 309.523438 114.46875 C 301.792969 114.46875 295.527344 108.210938 295.527344 100.488281 C 295.527344 92.769531 301.792969 86.511719 309.523438 86.511719 Z M 309.523438 86.511719 " fill-opacity="1" fill-rule="nonzero"/><path fill="#1865c1" d="M 256.195312 140.34375 C 263.925781 140.34375 270.191406 146.605469 270.191406 154.324219 C 270.191406 162.042969 263.925781 168.304688 256.195312 168.304688 C 248.464844 168.304688 242.199219 162.042969 242.199219 154.324219 C 242.199219 146.605469 248.464844 140.34375 256.195312 140.34375 Z M 256.195312 140.34375 " fill-opacity="1" fill-rule="nonzero"/><path fill="#1865c1" d="M 202.863281 128.09375 C 210.59375 128.09375 216.859375 134.351562 216.859375 142.074219 C 216.859375 149.792969 210.59375 156.054688 202.863281 156.054688 C 195.136719 156.054688 188.867188 149.792969 188.867188 142.074219 C 188.867188 134.351562 195.136719 128.09375 202.863281 128.09375 Z M 202.863281 128.09375 " fill-opacity="1" fill-rule="nonzero"/><path fill="#1865c1" d="M 96.207031 116.949219 C 103.933594 116.949219 110.203125 123.207031 110.203125 130.929688 C 110.203125 138.648438 103.933594 144.910156 96.207031 144.910156 C 88.476562 144.910156 82.210938 138.648438 82.210938 130.929688 C 82.210938 123.207031 88.476562 116.949219 96.207031 116.949219 Z M 96.207031 116.949219 " fill-opacity="1" fill-rule="nonzero"/><path fill="#1865c1" d="M 149.847656 151.800781 C 157.578125 151.800781 163.84375 158.058594 163.84375 165.777344 C 163.84375 173.5 157.578125 179.757812 149.847656 179.757812 C 142.121094 179.757812 135.851562 173.5 135.851562 165.777344 C 135.851562 158.058594 142.121094 151.800781 149.847656 151.800781 Z M 149.847656 151.800781 " fill-opacity="1" fill-rule="nonzero"/><g clip-path="url(#a0687845ef)"><path fill="#db4437" d="M 7.0625 70.996094 L 59.613281 70.996094 L 33.335938 37.851562 Z M 7.0625 70.996094 " fill-opacity="1" fill-rule="evenodd"/></g></svg>