<svg xmlns="http://www.w3.org/2000/svg" xmlns:xlink="http://www.w3.org/1999/xlink" width="500" zoomAndPan="magnify" viewBox="0 0 375 374.999991" height="500" preserveAspectRatio="xMidYMid meet" version="1.0"><defs><clipPath id="776dcb741c"><path d="M 3.535156 135 L 133 135 L 133 315 L 3.535156 315 Z M 3.535156 135 " clip-rule="nonzero"/></clipPath><clipPath id="11e2d96fc7"><path d="M 200 221 L 371.785156 221 L 371.785156 364 L 200 364 Z M 200 221 " clip-rule="nonzero"/></clipPath><clipPath id="e09bd33f24"><path d="M 245 112 L 371.785156 112 L 371.785156 232 L 245 232 Z M 245 112 " clip-rule="nonzero"/></clipPath></defs><g clip-path="url(#776dcb741c)"><path fill="#007bff" d="M 112.25 203.535156 L 128.730469 213.605469 C 131.507812 213.605469 132.910156 212.460938 132.910156 210.167969 C 132.910156 208.695312 132.246094 206.65625 130.945312 204.03125 L 94.542969 135.769531 L 13.863281 137.738281 C 10.246094 137.910156 8.453125 139.785156 8.453125 143.386719 C 8.453125 144.210938 9.597656 145.351562 11.894531 146.824219 L 28.621094 156.890625 L 10.914062 184.386719 C 5.992188 192.246094 3.535156 198.71875 3.535156 203.785156 C 3.535156 208.378906 5.167969 213.535156 8.453125 219.253906 L 63.304688 314.773438 C 61.988281 308.722656 61.335938 302.988281 61.335938 297.585938 C 61.335938 287.9375 64.359375 278.433594 70.4375 269.101562 L 112.253906 203.539062 " fill-opacity="1" fill-rule="nonzero"/></g><path fill="#007bff" d="M 133.40625 147.804688 L 178.664062 77.824219 C 161.765625 39.363281 143.808594 20.121094 124.796875 20.121094 C 113.308594 20.121094 105.609375 23.316406 101.675781 29.699219 L 58.878906 97.960938 L 133.40625 147.804688 " fill-opacity="1" fill-rule="nonzero"/><path fill="#007bff" d="M 96.511719 337.363281 L 183.828125 337.363281 L 183.828125 246.753906 L 99.707031 246.753906 C 89.378906 261.484375 82.894531 271.480469 80.273438 276.710938 C 76.003906 285.058594 73.878906 293.582031 73.878906 302.246094 C 73.878906 325.660156 81.417969 337.359375 96.511719 337.359375 " fill-opacity="1" fill-rule="nonzero"/><path fill="#007bff" d="M 276.3125 131.101562 L 315.171875 65.792969 C 316.476562 63.511719 317.140625 61.125 317.140625 58.671875 C 317.140625 55.722656 316.15625 54.25 314.191406 54.25 C 314.511719 54.25 313.207031 54.742188 310.253906 55.722656 L 292.542969 63.828125 L 276.3125 31.664062 C 269.09375 17.261719 254.664062 10.054688 233.019531 10.054688 L 131.933594 10.054688 C 144.230469 13.824219 152.59375 17.503906 157.023438 21.101562 C 167.351562 29.289062 177.929688 44.675781 188.746094 67.265625 L 208.917969 109.5 L 193.910156 116.621094 C 192.4375 117.285156 191.699219 118.582031 191.699219 120.546875 C 191.699219 123.003906 193.246094 124.40625 196.371094 124.726562 L 276.308594 131.105469 " fill-opacity="1" fill-rule="nonzero"/><g clip-path="url(#11e2d96fc7)"><path fill="#007bff" d="M 315.171875 323.855469 L 371.742188 221.222656 C 363.378906 230.726562 354.28125 237.109375 344.441406 240.378906 C 336.570312 243.003906 325.328125 244.300781 310.746094 244.300781 L 247.777344 244.300781 L 247.777344 231.289062 C 247.777344 226.21875 246.546875 223.675781 244.085938 223.675781 C 242.277344 223.675781 240.960938 224.34375 240.148438 225.640625 L 200.304688 294.644531 L 241.625 357.992188 C 244.738281 362.746094 247.445312 364.621094 249.746094 363.640625 C 252.027344 362.992188 253.1875 361.765625 253.1875 359.957031 L 253.1875 338.351562 L 288.113281 338.351562 C 300.90625 338.351562 309.917969 333.523438 315.171875 323.863281 " fill-opacity="1" fill-rule="nonzero"/></g><g clip-path="url(#e09bd33f24)"><path fill="#007bff" d="M 290.574219 231.285156 L 328.207031 231.285156 C 337.222656 231.285156 346.566406 227.359375 356.246094 219.5 C 366.578125 211.324219 371.742188 202.644531 371.742188 193.472656 C 371.742188 189.226562 370.339844 185.050781 367.558594 180.949219 L 322.796875 112.691406 L 245.804688 157.382812 L 290.570312 231.289062 " fill-opacity="1" fill-rule="nonzero"/></g></svg>