<svg xmlns="http://www.w3.org/2000/svg" xmlns:xlink="http://www.w3.org/1999/xlink" width="500" zoomAndPan="magnify" viewBox="0 0 375 374.999991" height="500" preserveAspectRatio="xMidYMid meet" version="1.0"><path fill="#c90000" d="M 139.375 109.601562 C 140.570312 111.191406 140.769531 113.257812 139.945312 115.980469 C 139.109375 118.75 137.894531 121.527344 138.535156 124.535156 L 32.710938 152.828125 C 23.519531 155.289062 18.054688 164.730469 20.519531 173.902344 L 46.304688 269.925781 C 45.484375 268.492188 44.550781 266.609375 43.386719 264.265625 C 44.367188 273.761719 44.445312 274.511719 49.417969 281.523438 L 49.503906 281.84375 C 50.191406 284.410156 51.429688 286.6875 53.058594 288.578125 C 52.046875 288.824219 51 289.226562 49.902344 289.882812 C 51.46875 289.894531 53.023438 289.726562 54.25 289.832031 C 55.003906 290.546875 55.816406 291.191406 56.683594 291.761719 C 56.742188 292.375 56.640625 293.179688 56.335938 294.222656 C 55.949219 295.550781 58.132812 295.527344 59.320312 295.394531 C 60.492188 295.253906 61.175781 294.710938 61.625 293.988281 C 64.472656 294.769531 67.5625 294.828125 70.625 294.007812 L 119.660156 280.898438 C 123.09375 282.660156 126.175781 283.945312 130.007812 282.457031 L 129.941406 282.476562 C 129.433594 280.457031 131.113281 280.492188 132.199219 280.386719 C 135.347656 280.023438 137.375 279.246094 135.90625 276.554688 L 157.328125 270.828125 C 157.777344 272.3125 158.277344 273.785156 158.839844 275.246094 C 159.03125 274.316406 159.035156 272.613281 158.898438 270.40625 L 196.203125 260.433594 C 198.074219 264.785156 199.210938 269.382812 200.25 274.0625 L 74.308594 307.734375 C 57.523438 312.222656 40.246094 302.269531 35.75 285.519531 L 6.761719 177.582031 C 4.449219 168.964844 5.964844 160.21875 10.273438 153.140625 C 10.125 154.746094 10.3125 156.316406 11.089844 157.828125 C 11.144531 157.886719 11.941406 157.785156 12.042969 157.609375 C 13.109375 155.484375 12.429688 153.617188 11.101562 151.847656 C 15.195312 145.800781 21.410156 141.140625 29.023438 139.105469 L 41.21875 135.84375 C 41.613281 137.695312 42.691406 139.121094 44.066406 140.902344 C 44.101562 139.21875 44.050781 137.808594 43.65625 136.484375 C 43.539062 136.089844 43.390625 135.699219 43.207031 135.3125 L 112.570312 116.769531 C 113.585938 117.167969 114.65625 117.414062 115.773438 117.535156 C 115.914062 117.085938 116.019531 116.644531 116.160156 116.191406 C 115.949219 116.121094 115.734375 116.050781 115.523438 115.980469 Z M 323.441406 226.414062 C 323.65625 227.253906 324.050781 228.007812 324.675781 228.746094 C 326.960938 231.59375 325.777344 233.546875 322.8125 234.785156 C 318.546875 236.546875 317.683594 238.726562 320.304688 241.964844 L 202.796875 273.382812 C 202.042969 268.640625 200.621094 264.011719 197.835938 259.996094 L 203.425781 258.503906 C 202.933594 259.042969 202.472656 259.617188 202.101562 260.273438 C 205.351562 257.242188 210.855469 259.613281 213.792969 255.730469 L 214.574219 255.523438 C 213.695312 256.136719 212.941406 256.839844 213.273438 258.296875 C 213.472656 259.035156 214.492188 259.773438 214.6875 259.382812 C 215.574219 257.382812 217.019531 256.058594 220.289062 254.847656 C 219.769531 254.65625 219.328125 254.492188 218.949219 254.351562 L 232.984375 250.601562 C 233.902344 252.484375 236.492188 252.492188 237.902344 253.800781 C 237.957031 253.863281 238.207031 253.683594 238.800781 253.375 C 237.828125 252.222656 237.242188 250.800781 236.304688 249.710938 L 258.273438 243.839844 C 257.992188 244.726562 257.375 245.234375 255.816406 246.511719 C 258.191406 247.828125 259.753906 246.246094 260.71875 244.675781 C 261.109375 244.046875 261.191406 243.527344 261.0625 243.09375 Z M 281.652344 71.5625 L 298.875 66.957031 C 315.660156 62.46875 332.933594 72.421875 337.433594 89.171875 L 352.316406 144.59375 C 350.867188 144.890625 349.40625 145.085938 347.878906 144.703125 C 348.234375 147.953125 350.230469 148.757812 352.476562 148.976562 C 352.820312 149.011719 353.160156 149.015625 353.5 148.992188 L 366.421875 197.113281 C 370.917969 213.859375 360.941406 231.101562 344.15625 235.585938 L 329.246094 239.574219 C 330.339844 237.96875 331.457031 236.410156 333.59375 235.992188 C 334.820312 235.738281 334.953125 234.699219 334.195312 234.082031 C 333.25 233.332031 333.917969 230.699219 332.324219 231.535156 C 328.996094 233.242188 329.273438 230.675781 328.164062 229.039062 C 327.492188 228 326.945312 226.808594 326.171875 225.683594 L 340.472656 221.863281 C 349.664062 219.40625 355.128906 209.960938 352.664062 200.789062 L 323.679688 92.847656 C 322.238281 87.488281 318.410156 83.398438 313.640625 81.417969 C 314.011719 81.210938 314.390625 81.007812 314.769531 81.023438 C 316.128906 81.074219 317.46875 80.902344 318.804688 80.847656 C 318.761719 80.554688 318.765625 80.292969 318.726562 80.003906 C 317.558594 79.828125 316.351562 79.660156 315.1875 79.371094 C 313.863281 79.050781 312.511719 78.058594 311.398438 79.636719 C 311.253906 79.847656 311.253906 80.269531 311.34375 80.644531 C 308.550781 79.921875 305.542969 79.886719 302.558594 80.683594 L 254.308594 93.582031 C 254.582031 93.148438 254.785156 92.644531 254.875 92.0625 C 255.105469 90.441406 254.945312 88.734375 254.964844 87.019531 C 252.988281 87.253906 254.429688 90.136719 251.5625 89.675781 C 251.480469 86.40625 250.304688 83.359375 249.289062 80.214844 L 277.898438 72.566406 C 279.386719 73.527344 281.484375 74.132812 282.953125 75.097656 C 284.03125 75.8125 284.484375 77.625 286.300781 76.660156 C 286.652344 76.453125 287 75.800781 287 75.390625 C 286.945312 73.808594 285.660156 73.445312 284.445312 73.0625 C 283.019531 72.632812 282.113281 72.144531 281.652344 71.5625 Z M 251.898438 254.203125 C 250.59375 256.167969 252.078125 256.257812 254.296875 256.152344 C 255.558594 256.117188 256.214844 257.292969 255.875 258.398438 C 255.367188 259.996094 254.015625 259.007812 253.238281 258.765625 C 250.527344 258.023438 249.4375 256.328125 250.84375 253.621094 C 251.050781 253.265625 251.738281 253.046875 252.238281 252.949219 C 252.738281 252.855469 252.855469 253.160156 251.898438 254.203125 Z M 130.003906 282.472656 C 129.992188 282.496094 129.976562 282.519531 129.964844 282.542969 C 131.253906 285.152344 132.578125 287.753906 133.886719 290.429688 C 128.824219 290.121094 127.367188 287.117188 129.964844 282.542969 L 129.9375 282.488281 Z M 203.765625 268.742188 C 203.808594 268.207031 203.640625 267.574219 203.914062 267.203125 C 204.980469 265.601562 202.007812 263.320312 204.789062 262.089844 C 205.058594 261.976562 205.671875 262.039062 205.753906 262.203125 C 206.730469 264.160156 205.230469 265.835938 205.054688 267.6875 C 205.027344 268.144531 204.667969 268.613281 204.457031 269.085938 C 204.242188 268.992188 203.988281 268.871094 203.765625 268.742188 Z M 230.625 252.78125 C 232.257812 254.109375 235.351562 254.332031 234.121094 257.703125 C 233.769531 258.625 233.488281 259.523438 232.351562 258.925781 C 229.578125 257.527344 231.574219 254.777344 230.625 252.78125 Z M 312.34375 232.535156 C 314.671875 233.679688 315.558594 229.3125 317.933594 231.042969 C 318.175781 231.238281 318.050781 232.585938 317.671875 232.988281 C 316.007812 234.746094 314.226562 234.246094 312.34375 232.535156 Z M 358.503906 186.496094 C 355.21875 186.546875 353.894531 185.25 353.835938 182.785156 C 353.84375 182.257812 354.835938 181.207031 354.925781 181.257812 C 356.871094 182.238281 357.894531 183.953125 358.503906 186.496094 Z M 70.03125 255.542969 L 70.023438 255.511719 L 64.804688 236.089844 C 64.238281 233.976562 63.886719 231.046875 66.710938 230.292969 C 68.726562 229.753906 70.570312 230.988281 71.332031 232.617188 C 74.910156 240.292969 83.234375 248.746094 92.597656 248.183594 L 94.164062 254.019531 C 85.332031 256.167969 82.472656 253.15625 78.839844 254.125 C 75.613281 254.988281 76.804688 258.230469 74.285156 258.90625 C 72.527344 259.375 71.441406 258.402344 70.804688 257.375 C 71.945312 256.96875 73.191406 256.671875 74.574219 256.519531 C 72.757812 255.574219 71.300781 255.347656 70.03125 255.542969 Z M 91.445312 227.8125 C 90.503906 227.671875 89.59375 227.546875 88.75 227.421875 C 74.609375 225.484375 61.265625 222.902344 57.023438 207.101562 C 52.914062 191.800781 61.46875 179.375 76.160156 174.90625 L 77.730469 180.746094 C 74.246094 183.078125 71.675781 186.785156 72.785156 190.914062 C 74.109375 195.84375 77.640625 198.136719 90.890625 199.554688 C 110.582031 201.628906 117.15625 210.007812 119.644531 219.269531 C 119.703125 219.5 119.761719 219.726562 119.816406 219.957031 C 119.597656 219.777344 119.441406 219.429688 119.304688 219.167969 C 118.65625 217.855469 107.984375 209.742188 106.597656 209.554688 C 106.101562 209.5 105.324219 209.375 105.105469 209.65625 C 102.84375 212.566406 100.472656 215.46875 100.710938 219.53125 C 103.261719 219.371094 102.875 223.859375 105.574219 222.878906 C 108.183594 221.957031 105.875 220.121094 105.582031 218.898438 C 105.082031 216.613281 104.90625 214.171875 106.738281 212.976562 C 108.636719 211.761719 110.308594 213.84375 111.765625 215.125 C 114.8125 217.769531 116.945312 221.285156 120.453125 223.636719 C 121.847656 237.363281 112.148438 248.921875 98.703125 252.808594 L 97.136719 246.96875 C 101.570312 244.164062 105.113281 240.84375 103.828125 235.257812 C 102.8125 230.9375 98.761719 229.253906 94.570312 228.363281 C 95.339844 227.734375 95.703125 226.734375 95.335938 225.789062 C 93.980469 222.398438 95.332031 218.875 94.332031 215.425781 C 93.8125 213.628906 94.957031 211.390625 92.0625 210.007812 C 90.707031 212.417969 88.628906 214.347656 90.355469 217.046875 C 92.195312 219.898438 91.601562 223.070312 91.753906 226.117188 C 91.78125 226.613281 91.511719 227.257812 91.445312 227.8125 Z M 167.125 170.941406 C 166.519531 170.53125 165.953125 170.175781 166.347656 171.90625 C 166.570312 172.960938 167.394531 173.632812 168.472656 173.433594 L 190.484375 214.136719 C 191.847656 216.792969 192.460938 218.679688 195.609375 219.132812 C 197.183594 219.359375 198.484375 219.765625 198.96875 221.578125 C 199.699219 224.292969 196.039062 225.164062 194.125 225.675781 L 169.007812 232.394531 C 166.988281 232.933594 164.011719 233.511719 163.308594 230.894531 C 162.875 229.285156 163.34375 228.621094 164.46875 227.566406 C 166.585938 225.453125 166.875 224.617188 165.183594 221.328125 C 165.128906 221.019531 164.964844 220.707031 164.664062 220.382812 L 160.839844 213.648438 L 146.113281 217.585938 L 145.957031 211.371094 L 158.261719 208.082031 L 146.230469 185.375 C 146.785156 184.121094 147.792969 183.144531 149.914062 182.863281 C 149.949219 182.855469 149.957031 181.515625 149.695312 180.953125 C 149.339844 180.042969 148.609375 180.5 147.898438 180.613281 C 146.652344 180.78125 145.582031 181.476562 144.746094 182.582031 L 136.128906 166.316406 L 135.980469 160.53125 L 158.273438 154.570312 Z M 136.234375 175.566406 L 135.929688 175.648438 L 135.691406 223.070312 C 135.695312 230.726562 133.59375 233.769531 131.769531 235.445312 C 129.847656 237.144531 128.105469 237.503906 128.757812 239.917969 C 129.539062 242.835938 133.199219 241.964844 135.214844 241.425781 L 146.816406 238.324219 C 148.832031 237.785156 152.089844 237.023438 151.332031 234.207031 C 150.789062 232.191406 149.214844 231.96875 147.414062 231.695312 C 143.578125 231.101562 141.707031 229.765625 141.671875 223.195312 L 141.910156 186.238281 Z M 310.476562 176.296875 C 310.734375 175.078125 310.910156 173.824219 310.992188 172.53125 C 311.292969 170.835938 311.464844 169.0625 313.28125 168.578125 C 316.507812 167.714844 317.019531 170.8125 317.125 171.214844 L 319.457031 179.894531 C 316 183.90625 320.894531 187.980469 318.398438 191.328125 C 315.433594 191.339844 314.179688 186.394531 309.847656 188.074219 C 310.960938 189.449219 313.167969 190.496094 311.730469 192.183594 C 310.222656 193.886719 307.882812 193.730469 305.726562 193.714844 C 305.871094 194.449219 306.011719 195.117188 306.148438 195.726562 L 299.332031 197.550781 L 297.765625 191.710938 C 303.855469 189.25 308.082031 184.402344 309.960938 178.289062 C 310.5625 177.851562 311.15625 177.320312 311.835938 177.105469 C 311.375 176.699219 310.921875 176.441406 310.476562 176.296875 Z M 245.75 131.886719 C 246.5625 131.035156 247.714844 130.65625 247.945312 130.597656 L 274.574219 123.476562 L 294.792969 198.761719 L 268.160156 205.882812 C 268.089844 205.902344 267.929688 205.9375 267.703125 205.96875 C 267.691406 205.523438 267.75 205.066406 267.886719 204.585938 C 268.136719 203.585938 269.015625 202.574219 267.746094 201.722656 C 267.429688 201.507812 266.5 201.496094 266.375 201.71875 C 265.699219 202.789062 265.136719 204.019531 265.65625 205.253906 C 265.75 205.484375 265.84375 205.710938 265.933594 205.941406 C 264.964844 205.746094 263.972656 205.175781 263.59375 203.761719 C 263.214844 202.351562 263.878906 201.203125 265.082031 200.449219 C 268.316406 198.398438 268.054688 197.820312 267.050781 194.097656 L 252.890625 141.355469 C 251.890625 137.632812 251.828125 137.003906 248 136.839844 C 246.582031 136.789062 245.429688 136.125 245.050781 134.714844 C 245.03125 134.644531 245.015625 134.574219 245 134.503906 C 247.4375 134.546875 249.867188 134.484375 252.304688 134.503906 C 250.351562 133.171875 247.851562 132.84375 245.75 131.886719 Z M 186.644531 152.542969 C 185.917969 152.214844 185.371094 151.625 185.132812 150.734375 C 184.351562 147.816406 187.625 146.722656 188.027344 146.617188 L 216.574219 138.984375 C 216.976562 138.875 220.359375 138.1875 221.144531 141.105469 C 221.523438 142.515625 220.859375 143.664062 219.65625 144.417969 C 216.421875 146.46875 216.683594 147.046875 217.683594 150.769531 L 221.980469 166.765625 C 222.234375 168.183594 222.613281 169.625 223.058594 170.78125 L 234.875 214.78125 L 208.246094 221.902344 C 207.84375 222.011719 204.460938 222.699219 203.675781 219.78125 C 203.296875 218.371094 203.960938 217.222656 205.164062 216.46875 C 208.398438 214.417969 208.136719 213.839844 207.136719 210.117188 L 206.972656 209.507812 C 207.933594 209.769531 208.855469 209.859375 209.84375 209.558594 C 210.578125 209.363281 210.371094 208.179688 209.75 207.820312 C 208.65625 207.222656 207.523438 206.59375 206.234375 206.765625 L 202.894531 194.324219 C 203.699219 194.925781 204.59375 195.394531 205.550781 195.6875 C 206.800781 196.058594 207.292969 194.292969 206.886719 193.472656 C 205.945312 191.34375 203.914062 190.695312 201.910156 190.414062 C 201.890625 190.417969 201.867188 190.421875 201.847656 190.421875 L 192.972656 157.375 C 191.972656 153.652344 191.910156 153.023438 188.082031 152.859375 C 188.039062 152.855469 187.992188 152.855469 187.945312 152.851562 C 188.007812 152.390625 188.070312 151.910156 188.136719 151.398438 C 187.546875 151.84375 187.050781 152.21875 186.644531 152.542969 Z M 248.097656 187.019531 C 248.089844 186.753906 248.085938 186.492188 248.074219 186.226562 C 247.980469 183.878906 249.03125 182.949219 251.148438 182.382812 C 253.46875 181.761719 254.183594 183.621094 254.695312 185.535156 L 260.699219 207.878906 L 239.414062 213.570312 L 237.847656 207.730469 C 243.957031 205.175781 246.980469 199.617188 247.84375 192.617188 C 248.886719 190.648438 248.058594 187.324219 249.910156 185.921875 C 249.109375 186.144531 248.53125 186.53125 248.097656 187.019531 Z M 322.53125 191.347656 L 321.816406 191.539062 C 321.335938 189.042969 320.769531 186.515625 320.519531 183.851562 Z M 39.050781 255.082031 C 39.019531 256.363281 38.539062 256.945312 37.46875 257.003906 C 35.988281 257.0625 34.398438 257 33.652344 255.621094 C 33.027344 254.550781 34.34375 254.011719 35.074219 254.078125 C 36.453125 254.199219 37.796875 254.738281 39.050781 255.082031 Z M 182.78125 205.523438 C 184.929688 204.953125 185.101562 206.839844 185.617188 207.929688 C 186.492188 209.8125 185.503906 210.820312 183.632812 211.320312 C 181.695312 211.839844 179.667969 211.601562 179.328125 209.644531 C 178.941406 207.519531 181.34375 206.652344 182.78125 205.523438 Z M 289.816406 162.121094 C 294.351562 162.09375 297.324219 165.507812 299.257812 169.089844 C 300.222656 170.664062 301.257812 172.113281 303.378906 171.546875 C 306.503906 170.710938 305.027344 167.222656 304.808594 166.417969 L 298.972656 144.679688 C 298.757812 143.875 298.289062 140.113281 295.160156 140.949219 C 293.042969 141.515625 292.871094 143.289062 292.824219 145.136719 C 292.941406 149.203125 292.082031 153.640625 288.140625 155.878906 Z M 344.140625 153.539062 C 344.683594 156.246094 342.796875 162.195312 349.015625 155.652344 C 347.988281 159.90625 345.535156 160.675781 343.5625 159.472656 C 341.09375 157.957031 343.09375 155.769531 344.140625 153.539062 Z M 31.042969 229.765625 C 28.335938 226.734375 27.5 223.761719 27.21875 220.640625 C 27.089844 219.335938 27.460938 218.082031 28.914062 217.695312 C 29.527344 217.492188 30.507812 217.417969 30.828125 217.777344 C 31.667969 218.707031 31.113281 219.820312 30.617188 220.734375 C 28.992188 223.511719 30.96875 226.179688 31.042969 229.765625 Z M 276.007812 160.589844 C 274.300781 158.519531 270.785156 157.710938 271.832031 155.128906 C 273.511719 151.035156 277.085938 149.558594 281.898438 151.320312 C 282.230469 155.730469 274.0625 154.867188 276.007812 160.589844 Z M 255.632812 138.523438 C 259.851562 141.671875 259.902344 147.941406 264.039062 150.367188 C 268.625 153.082031 266.175781 155.148438 264.933594 159.496094 C 262.359375 151.148438 258.082031 145.304688 255.632812 138.523438 Z M 94.96875 183.679688 C 91.289062 180.976562 86.78125 179.320312 82.269531 179.53125 L 80.699219 173.695312 C 87.082031 172.09375 94.867188 174.113281 95.976562 173.816406 C 98.601562 173.113281 97.425781 169.546875 100.046875 168.84375 C 103.175781 168.007812 103.890625 171.484375 104.109375 172.289062 L 106.277344 180.363281 C 105.316406 180.664062 104.300781 181.375 103.171875 182.609375 C 104.578125 182.429688 105.742188 182.28125 106.757812 182.15625 L 108.730469 189.5 C 109.351562 191.816406 109.625 194.441406 106.699219 195.222656 C 104.277344 195.871094 102.855469 194.199219 102.011719 192.265625 C 100.851562 189.597656 98.96875 187.09375 96.632812 185.023438 C 98.375 185.207031 99.585938 183.167969 101.269531 182.808594 C 99.359375 182.53125 97.882812 179.546875 95.742188 182.035156 C 95.367188 182.492188 95.011719 183.140625 94.96875 183.679688 Z M 209.164062 167.34375 C 206.777344 167.496094 204.617188 166.773438 202.539062 166.3125 C 200.464844 165.847656 198.472656 165.648438 196.421875 166.847656 C 198.730469 161.914062 204.519531 161.929688 209.164062 167.34375 Z M 294.386719 130.988281 C 290.632812 128.539062 286.144531 127.53125 280.683594 128.101562 L 279.113281 122.261719 L 301.609375 116.25 L 307.09375 136.679688 C 307.230469 137.183594 307.644531 139.125 304.617188 139.933594 C 302.902344 140.390625 302.128906 139.519531 301.21875 138.144531 C 301.121094 137.996094 301.027344 137.851562 300.929688 137.707031 C 300.980469 137.660156 301.03125 137.605469 301.085938 137.546875 C 302.175781 136.363281 300.949219 135.242188 299.6875 134.6875 C 297.277344 133.582031 295.785156 131.75 295.054688 128.898438 C 294.761719 129.566406 294.570312 130.28125 294.386719 130.988281 Z M 65.160156 195.195312 C 64.710938 197.007812 65.835938 199.519531 62.863281 199.753906 C 61.144531 199.910156 59.121094 196.699219 60.304688 195.667969 C 62.015625 197.574219 63.421875 196.523438 65.160156 195.195312 Z M 275.0625 134.363281 C 273.683594 133.832031 272.53125 133.089844 271.5 132.066406 C 270.46875 131.039062 269.566406 129.734375 268.691406 128.070312 C 272.414062 129.515625 273.601562 132.128906 275.0625 134.363281 Z M 202.382812 152.207031 C 199.695312 148.609375 200.371094 146.664062 201.839844 144.882812 C 201.949219 144.738281 202.84375 144.988281 203.109375 145.292969 C 205.296875 147.710938 202.300781 148.964844 202.382812 152.207031 Z M 18.613281 176.679688 C 18.449219 178.355469 18.765625 179.855469 18.898438 181.480469 C 19.027344 183.101562 18.972656 184.84375 18.054688 187.003906 C 18.453125 182.765625 15.691406 180.164062 18.613281 176.679688 Z M 139.074219 124.394531 C 139.910156 122.269531 140.753906 120.132812 141.53125 118.160156 C 144.195312 118.945312 144.988281 120.691406 145.175781 122.761719 Z M 244.636719 81.457031 C 244.820312 84.753906 245.390625 88.039062 246.1875 91.335938 C 246.582031 92.894531 247.371094 94.363281 248.316406 95.183594 L 222.039062 102.210938 C 220.515625 98.722656 217.746094 95.574219 214.820312 94.59375 C 215.429688 98.011719 217.214844 100.585938 219.253906 102.957031 L 163.066406 117.976562 C 162.941406 117.816406 162.808594 117.65625 162.660156 117.492188 C 162.699219 117.683594 162.734375 117.871094 162.765625 118.058594 L 148.113281 121.976562 C 148.164062 121.34375 148.070312 120.636719 147.878906 119.84375 C 147.039062 116.0625 145.570312 112.398438 144.8125 108.585938 C 145.859375 108.460938 146.570312 108.066406 147.101562 107.535156 L 201.660156 92.949219 L 202.464844 95.957031 C 202.980469 94.667969 203.484375 93.472656 203.921875 92.34375 L 212.617188 90.019531 C 213.359375 90.625 214.234375 91.113281 215.339844 91.394531 C 215.007812 90.714844 214.703125 90.097656 214.421875 89.539062 Z M 72.425781 135.601562 C 73.660156 138.238281 76.515625 132.40625 77.367188 136.832031 C 77.558594 137.832031 77.128906 138.738281 76.136719 138.8125 C 74.113281 138.941406 72.898438 137.765625 72.425781 135.601562 Z M 60.738281 136.964844 C 62.214844 137.789062 63.816406 138.066406 65.410156 138.3125 C 67 138.558594 68.585938 138.773438 70.027344 139.472656 C 66.636719 139.667969 62.8125 141.480469 60.738281 136.964844 Z M 145.226562 108.039062 C 145.097656 108.214844 144.960938 108.382812 144.804688 108.546875 C 144.78125 108.421875 144.757812 108.292969 144.734375 108.167969 L 145.226562 108.039062 " fill-opacity="1" fill-rule="evenodd"/></svg>